<svg width="40" height="40" viewBox="0 0 40 40" fill="none" xmlns="http://www.w3.org/2000/svg">
<circle cx="20" cy="20" r="20" fill="#018FA3"/>
<g clip-path="url(#clip0_4_16)">
<path d="M26.8221 24.9668L24.9988 22.3887C24.3476 21.468 22.9575 21.5533 22.4679 22.5211C22.1108 23.1881 21.2575 23.4463 20.577 23.1678C19.0725 22.5052 17.3008 20.0978 17.1908 18.3799C17.0763 17.632 17.6827 16.9269 18.4305 16.8125C19.5062 16.6733 20.0497 15.391 19.3985 14.4703L17.5751 11.8922C17.0407 11.2342 16.0975 11.0725 15.453 11.5283L13.7036 12.7656C11.9407 14.0814 12.8769 18.5301 15.9375 22.8577C18.9982 27.1852 22.8673 29.6287 24.7088 28.3263L26.4582 27.089C27.1163 26.5545 27.278 25.6114 26.8221 24.9668Z" fill="white"/>
</g>
<defs>
<clipPath id="clip0_4_16">
<rect width="16" height="16" fill="white" transform="translate(13.4672 10.763) rotate(9.7303)"/>
</clipPath>
</defs>
</svg>
